<svg xmlns="http://www.w3.org/2000/svg" xmlns:xlink="http://www.w3.org/1999/xlink" viewBox="0 0 393.23 327.7"><defs><style>.cls-1{mask:url(#mask);filter:url(#luminosity-noclip-5);}.cls-11,.cls-13,.cls-15,.cls-17,.cls-2,.cls-37,.cls-4,.cls-40,.cls-47,.cls-6,.cls-8{mix-blend-mode:multiply;}.cls-2{fill:url(#radial-gradient);}.cls-3{mask:url(#mask-2);filter:url(#luminosity-noclip-6);}.cls-4{fill:url(#radial-gradient-2);}.cls-5{mask:url(#mask-3);filter:url(#luminosity-noclip-7);}.cls-6{fill:url(#radial-gradient-3);}.cls-7{mask:url(#mask-4);filter:url(#luminosity-noclip-8);}.cls-8{fill:url(#radial-gradient-4);}.cls-9{isolation:isolate;}.cls-10{mask:url(#mask-5);}.cls-11,.cls-13,.cls-15,.cls-17{opacity:0.6;}.cls-11{fill:url(#radial-gradient-5);}.cls-12{mask:url(#mask-6);}.cls-13{fill:url(#radial-gradient-6);}.cls-14{mask:url(#mask-7);}.cls-15{fill:url(#radial-gradient-7);}.cls-16{mask:url(#mask-8);}.cls-17{fill:url(#radial-gradient-8);}.cls-18{fill:#1d0b05;}.cls-19{fill:#331b19;}.cls-20{fill:#264057;}.cls-21{fill:#259dab;}.cls-22{fill:#f9bb8d;}.cls-23{fill:#e2ac81;}.cls-24{fill:#e94e1b;}.cls-25{fill:#ffde00;}.cls-26{fill:#3d2216;}.cls-27{fill:#f39200;}.cls-28{fill:#ee7203;}.cls-29{fill:#f9b233;}.cls-30{fill:#238893;}.cls-31{fill:#a4a3a3;}.cls-32,.cls-37{fill:#c6c6c6;}.cls-33{fill:#9f3121;}.cls-34{fill:#c13a2a;}.cls-35,.cls-39,.cls-51{fill:#fff;}.cls-35,.cls-51{mix-blend-mode:soft-light;}.cls-36{fill:#fec700;}.cls-38{fill:#d74918;}.cls-40{fill:#c4b5a7;}.cls-41{fill:#a1d2d9;}.cls-42{fill:#004878;}.cls-43{fill:#b2b2b2;}.cls-44{fill:#dadada;}.cls-45{fill:#9d9d9c;}.cls-46{fill:#f39313;}.cls-47{fill:#d5c1bb;}.cls-48{fill:#341b00;}.cls-49{fill:none;stroke:#251100;stroke-miterlimit:10;stroke-width:0.51px;}.cls-50{fill:#58320a;}.cls-51{opacity:0.3;}.cls-52{fill:#fab700;}.cls-53{filter:url(#luminosity-noclip-4);}.cls-54{filter:url(#luminosity-noclip-3);}.cls-55{filter:url(#luminosity-noclip-2);}.cls-56{filter:url(#luminosity-noclip);}</style><filter id="luminosity-noclip" x="0" y="-8355.89" width="272.86" height="32766" filterUnits="userSpaceOnUse" color-interpolation-filters="sRGB"><feFlood flood-color="#fff" result="bg"/><feBlend in="SourceGraphic" in2="bg"/></filter><mask id="mask" x="0" y="-8355.89" width="272.86" height="32766" maskUnits="userSpaceOnUse"><g class="cls-56"/></mask><radialGradient id="radial-gradient" cx="-575.89" cy="239.29" r="106.88" gradientTransform="translate(954.68 255.5) scale(1.45 0.19)" gradientUnits="userSpaceOnUse"><stop offset="0.01" stop-color="#fff"/><stop offset="0.16" stop-color="#d4d4d4"/><stop offset="0.5" stop-color="#6a6a6a"/><stop offset="0.83"/></radialGradient><filter id="luminosity-noclip-2" x="111.02" y="-8355.89" width="260.92" height="32766" filterUnits="userSpaceOnUse" color-interpolation-filters="sRGB"><feFlood flood-color="#fff" result="bg"/><feBlend in="SourceGraphic" in2="bg"/></filter><mask id="mask-2" x="111.02" y="-8355.89" width="260.92" height="32766" maskUnits="userSpaceOnUse"><g class="cls-55"/></mask><radialGradient id="radial-gradient-2" cx="-555.54" cy="239.29" r="91.48" gradientTransform="translate(1078.61 255.5) scale(1.5 0.19)" xlink:href="#radial-gradient"/><filter id="luminosity-noclip-3" x="192.5" y="-8355.89" width="179.44" height="32766" filterUnits="userSpaceOnUse" color-interpolation-filters="sRGB"><feFlood flood-color="#fff" result="bg"/><feBlend in="SourceGraphic" in2="bg"/></filter><mask id="mask-3" x="192.5" y="-8355.89" width="179.44" height="32766" maskUnits="userSpaceOnUse"><g class="cls-54"/></mask><radialGradient id="radial-gradient-3" cx="-522.25" cy="283.17" r="70.28" gradientTransform="translate(1078.61 255.5) scale(1.5 0.19)" xlink:href="#radial-gradient"/><filter id="luminosity-noclip-4" x="244.59" y="-8355.89" width="130.89" height="32766" filterUnits="userSpaceOnUse" color-interpolation-filters="sRGB"><feFlood flood-color="#fff" result="bg"/><feBlend in="SourceGraphic" in2="bg"/></filter><mask id="mask-4" x="244.59" y="-8355.89" width="130.89" height="32766" maskUnits="userSpaceOnUse"><g class="cls-53"/></mask><radialGradient id="radial-gradient-4" cx="-510.85" cy="330.78" r="46.85" gradientTransform="translate(1078.61 255.5) scale(1.5 0.19)" gradientUnits="userSpaceOnUse"><stop offset="0.2" stop-color="#fff"/><stop offset="0.27" stop-color="#f8f8f8"/><stop offset="0.37" stop-color="#e6e6e6"/><stop offset="0.49" stop-color="#c7c7c7"/><stop offset="0.62" stop-color="#9d9d9d"/><stop offset="0.77" stop-color="#676767"/><stop offset="0.92" stop-color="#262626"/><stop offset="1"/></radialGradient><filter id="luminosity-noclip-5" x="0" y="280.81" width="272.86" height="40.88" filterUnits="userSpaceOnUse" color-interpolation-filters="sRGB"><feFlood flood-color="#fff" result="bg"/><feBlend in="SourceGraphic" in2="bg"/></filter><mask id="mask-5" x="0" y="280.81" width="272.86" height="40.88" maskUnits="userSpaceOnUse"><g class="cls-1"><path class="cls-2" d="M117.51,280.81c-46.94,0-89,2.74-117.51,7.07v26.74c28.49,4.33,70.56,7.07,117.51,7.07,85.8,0,155.35-9.15,155.35-20.44S203.31,280.81,117.51,280.81Z"/></g></mask><radialGradient id="radial-gradient-5" cx="-575.89" cy="239.29" r="106.88" gradientTransform="translate(954.68 255.5) scale(1.45 0.19)" gradientUnits="userSpaceOnUse"><stop offset="0.01"/><stop offset="0.16" stop-color="#2b2b2b"/><stop offset="0.5" stop-color="#959595"/><stop offset="0.83" stop-color="#fff"/></radialGradient><filter id="luminosity-noclip-6" x="111.02" y="283.76" width="260.92" height="34.98" filterUnits="userSpaceOnUse" color-interpolation-filters="sRGB"><feFlood flood-color="#fff" result="bg"/><feBlend in="SourceGraphic" in2="bg"/></filter><mask id="mask-6" x="111.02" y="283.76" width="260.92" height="34.98" maskUnits="userSpaceOnUse"><g class="cls-3"><path class="cls-4" d="M371.94,293.9c-21.73-6-69.13-10.13-124.13-10.13-75.55,0-136.79,7.83-136.79,17.49s61.24,17.49,136.79,17.49c55,0,102.4-4.15,124.13-10.13Z"/></g></mask><radialGradient id="radial-gradient-6" cx="-555.54" cy="239.29" r="91.48" gradientTransform="translate(1078.61 255.5) scale(1.5 0.19)" xlink:href="#radial-gradient-5"/><filter id="luminosity-noclip-7" x="192.5" y="296.2" width="179.44" height="26.88" filterUnits="userSpaceOnUse" color-interpolation-filters="sRGB"><feFlood flood-color="#fff" result="bg"/><feBlend in="SourceGraphic" in2="bg"/></filter><mask id="mask-7" x="192.5" y="296.2" width="179.44" height="26.88" maskUnits="userSpaceOnUse"><g class="cls-5"><path class="cls-6" d="M371.94,300.14c-19-2.44-45.31-3.94-74.35-3.94-58,0-105.09,6-105.09,13.44s47.05,13.44,105.09,13.44c29,0,55.33-1.51,74.35-3.94Z"/></g></mask><radialGradient id="radial-gradient-7" cx="-522.25" cy="283.17" r="70.28" gradientTransform="translate(1078.61 255.5) scale(1.5 0.19)" xlink:href="#radial-gradient-5"/><filter id="luminosity-noclip-8" x="244.59" y="309.79" width="130.89" height="17.92" filterUnits="userSpaceOnUse" color-interpolation-filters="sRGB"><feFlood flood-color="#fff" result="bg"/><feBlend in="SourceGraphic" in2="bg"/></filter><mask id="mask-8" x="244.59" y="309.79" width="130.89" height="17.92" maskUnits="userSpaceOnUse"><g class="cls-7"><path class="cls-8" d="M375.48,314.31c-12.07-2.7-34.78-4.52-60.84-4.52-38.69,0-70,4-70,9s31.36,9,70,9c26.06,0,48.78-1.82,60.84-4.52Z"/></g></mask><radialGradient id="radial-gradient-8" cx="-510.85" cy="330.78" r="46.85" gradientTransform="translate(1078.61 255.5) scale(1.5 0.19)" gradientUnits="userSpaceOnUse"><stop offset="0.2"/><stop offset="0.27" stop-color="#070707"/><stop offset="0.37" stop-color="#191919"/><stop offset="0.49" stop-color="#383838"/><stop offset="0.62" stop-color="#626262"/><stop offset="0.77" stop-color="#989898"/><stop offset="0.92" stop-color="#d9d9d9"/><stop offset="1" stop-color="#fff"/></radialGradient></defs><title>site-under-construction</title><g class="cls-9"><g id="Layer_2" data-name="Layer 2"><g id="Capa_1" data-name="Capa 1"><g class="cls-10"><path class="cls-11" d="M117.51,280.81c-46.94,0-89,2.74-117.51,7.07v26.74c28.49,4.33,70.56,7.07,117.51,7.07,85.8,0,155.35-9.15,155.35-20.44S203.31,280.81,117.51,280.81Z"/></g><g class="cls-12"><path class="cls-13" d="M371.94,293.9c-21.73-6-69.13-10.13-124.13-10.13-75.55,0-136.79,7.83-136.79,17.49s61.24,17.49,136.79,17.49c55,0,102.4-4.15,124.13-10.13Z"/></g><g class="cls-14"><path class="cls-15" d="M371.94,300.14c-19-2.44-45.31-3.94-74.35-3.94-58,0-105.09,6-105.09,13.44s47.05,13.44,105.09,13.44c29,0,55.33-1.51,74.35-3.94Z"/></g><g class="cls-16"><path class="cls-17" d="M375.48,314.31c-12.07-2.7-34.78-4.52-60.84-4.52-38.69,0-70,4-70,9s31.36,9,70,9c26.06,0,48.78-1.82,60.84-4.52Z"/></g><path class="cls-18" d="M129.39,307.51c-3.07,1.09-16.58-1.12-26.69-2-2.61-.22-1.43-15.45-1.43-15.45l10.63,2.45s12,6.41,17.49,6.41C135,298.94,132.45,306.43,129.39,307.51Z"/><path class="cls-19" d="M104.1,308.8c-3.16.8-16.41-2.62-26.4-4.39-2.58-.46,0-15.52,0-15.52L88,292.3s11.38,7.47,16.83,8C110.5,300.78,107.25,308,104.1,308.8Z"/><polygon class="cls-20" points="115.85 293.71 99.6 293.71 96.17 177.49 119.09 170.54 115.85 293.71"/><polygon class="cls-20" points="91.09 293.71 74.84 293.71 71.4 170.54 94.32 177.49 91.09 293.71"/><ellipse class="cls-20" cx="95.17" cy="167.59" rx="23.92" ry="19.02"/><path class="cls-21" d="M69.32,108.95c6.87-19,6.35-34.08,8.44-35.55s6.36-1.91,6.36-1.91H104.3s4.27.45,6.35,1.91,1.57,16.56,8.44,35.55c.27,14.37.85,62.26.85,62.26s-9.56,5.53-25.63,5.53H94.1c-16.06,0-25.63-5.53-25.63-5.53S69.05,123.32,69.32,108.95Z"/><path class="cls-22" d="M124.82,89.5l.28.69c.18.42.47,1.2.82,2.12s.8,2.08,1.19,3.31l1.4,4.2,1.43,5,.78,2.72.69,2.86,1.43,6c.45,2,.8,4.14,1.21,6.22s.81,4.16,1.15,6.22l.83,6.06.77,5.66c.25,1.8.32,3.51.47,5.09l.86,10.5-7.27.69-1.66-10.1c-.27-1.51-.47-3.16-.85-4.87l-1.19-5.39-1.26-5.75c-.49-1.94-1.06-3.9-1.58-5.86s-1-3.92-1.63-5.83l-1.81-5.56-.86-2.65-.94-2.49-1.71-4.55L115.78,100c-.46-1.14-.9-2-1.25-2.76s-.6-1.3-.84-1.76l-.34-.66Z"/><rect class="cls-23" x="86.89" y="63.42" width="14.59" height="11.57"/><ellipse class="cls-22" cx="74.3" cy="40.31" rx="4.99" ry="8.29"/><ellipse class="cls-22" cx="114.87" cy="40.31" rx="4.99" ry="8.29"/><path class="cls-24" d="M105.41,151.07c.44,8.76,2.34,16.06,6,17.58,5.28,2.21,8.54-3.28,8.54-3.28s-.58-42.05-.85-56.42c-6.87-19-6.35-34.08-8.44-35.55s-6.35-1.91-6.35-1.91l-.44,43S104.59,135,105.41,151.07Z"/><path class="cls-25" d="M106.59,160.32a45.71,45.71,0,0,1-.85-5.11h9.89V97.48a113.79,113.79,0,0,0,3.46,11.47c.21,11.31.62,39.77.78,51.37Z"/><path class="cls-22" d="M142.58,158c1.13,4.91,0,9.61-3.44,10.54s-8-2.95-9.39-8.7,1.25-10.48,4.84-10.56S141.41,153.12,142.58,158Z"/><path class="cls-22" d="M76.18,53.61c2.64,9.34,13.73,16.13,18.3,16.13s15.43-6.87,18.3-16.13a73.27,73.27,0,0,0,3.36-23c0-6.87-7.22-24.81-21.66-24.81s-21.66,14-21.66,22.71A100.37,100.37,0,0,0,76.18,53.61Z"/><path class="cls-26" d="M75.45,39.81c-1.86.4-.54-6.79-1.92-7.25-.91-.3-2,.73-2.69,1.79C69.31,24.42,71.57,2,96.17,2c22.55,0,23.69,23.76,22.55,33a5.73,5.73,0,0,0-3.23-2.66c-1.27-.36.4,5.39-3,7.43,0,0-.21-14.29-6.5-17s-5.87,4.91-12.43,4.91-5.45-6.23-11.18-4.91S77.58,29.35,75.45,39.81Z"/><path class="cls-27" d="M120.18,25A25.29,25.29,0,0,0,69.6,25Z"/><path class="cls-28" d="M81.68,3.7A29.93,29.93,0,0,1,97,25H69.6A24.85,24.85,0,0,1,81.68,3.7Z"/><path class="cls-29" d="M78.58,25h41.6l8.3,2.14s-1.41,3.12-3.16,3.12H85.67C82.24,30.23,78.58,25,78.58,25Z"/><path class="cls-30" d="M119.94,114.47l13.24-7.33s-6.9-21.49-10.91-26.61-11.61-7.13-11.61-7.13,1.39,19.91,8.44,35.55A15.81,15.81,0,0,0,119.94,114.47Z"/><path class="cls-22" d="M75.06,94.84l-.34.66c-.24.46-.48,1-.84,1.76s-.78,1.62-1.25,2.76L71,103.78l-1.71,4.55-.94,2.49-.86,2.65L65.71,119c-.58,1.91-1.08,3.88-1.63,5.83s-1.1,3.92-1.58,5.86l-1.26,5.75-1.19,5.39c-.38,1.71-.58,3.36-.85,4.87l-1.66,10.1-7.27-.69.86-10.5c.15-1.57.22-3.29.47-5.09l.77-5.66.83-6.06c.34-2.06.77-4.13,1.15-6.22s.76-4.18,1.21-6.22l1.43-6,.69-2.86.78-2.72,1.43-5,1.4-4.2c.39-1.24.83-2.38,1.19-3.31s.64-1.7.82-2.12l.28-.69Z"/><path class="cls-24" d="M83,151.07c-.44,8.76-2.34,16.06-6,17.58-5.28,2.21-8.54-3.28-8.54-3.28s.58-42.05.85-56.42c6.87-19,6.35-34.08,8.44-35.55s6.36-1.91,6.36-1.91l.44,43S83.82,135,83,151.07Z"/><path class="cls-25" d="M81.81,160.32a45.5,45.5,0,0,0,.85-5.11H72.78V97.48a114.07,114.07,0,0,1-3.46,11.47c-.21,11.31-.62,39.77-.78,51.37Z"/><path class="cls-22" d="M45.83,158c-1.13,4.91,0,9.61,3.44,10.54s8-2.95,9.39-8.7-1.25-10.48-4.84-10.56S47,153.12,45.83,158Z"/><path class="cls-30" d="M68.47,114.47l-13.24-7.33s6.9-21.49,10.91-26.61S77.76,73.4,77.76,73.4s-1.39,19.91-8.44,35.55A15.78,15.78,0,0,1,68.47,114.47Z"/><path class="cls-22" d="M94.1,80.53c7.12,0,8.19-9,8.19-9H85.91S87,80.53,94.1,80.53Z"/><rect class="cls-31" x="135.83" y="156.67" width="12.29" height="7.06"/><circle class="cls-32" cx="141.98" cy="146.25" r="13.37"/><circle class="cls-33" cx="141.98" cy="146.25" r="10.42"/><circle class="cls-34" cx="141.98" cy="146.25" r="8.21"/><path class="cls-35" d="M135.37,146.25a6.61,6.61,0,0,1,6.61-6.61C145.63,139.64,135.37,149.9,135.37,146.25Z"/><rect class="cls-31" x="286.93" y="156.67" width="12.29" height="7.06"/><circle class="cls-32" cx="293.08" cy="146.25" r="13.37"/><circle class="cls-33" cx="293.08" cy="146.25" r="10.42"/><circle class="cls-34" cx="293.08" cy="146.25" r="8.21"/><path class="cls-35" d="M286.47,146.25a6.61,6.61,0,0,1,6.61-6.61C296.73,139.64,286.47,149.9,286.47,146.25Z"/><rect class="cls-32" x="283.09" y="164.18" width="19.97" height="137.61"/><rect class="cls-32" x="131.99" y="164.18" width="19.97" height="137.61"/><rect class="cls-36" x="115.5" y="163.38" width="195.6" height="24.16"/><polygon points="140.63 187.54 115.5 187.54 135.63 163.38 160.76 163.38 140.63 187.54"/><polygon points="190.74 187.54 165.61 187.54 185.74 163.38 210.87 163.38 190.74 187.54"/><polygon points="240.85 187.54 215.72 187.54 235.85 163.38 260.99 163.38 240.85 187.54"/><polygon points="290.96 187.54 265.83 187.54 285.97 163.38 311.1 163.38 290.96 187.54"/><rect class="cls-36" x="115.5" y="210.52" width="195.6" height="24.16"/><polygon points="140.63 234.68 115.5 234.68 135.63 210.52 160.76 210.52 140.63 234.68"/><polygon points="190.74 234.68 165.61 234.68 185.74 210.52 210.87 210.52 190.74 234.68"/><polygon points="240.85 234.68 215.72 234.68 235.85 210.52 260.99 210.52 240.85 234.68"/><polygon points="290.96 234.68 265.83 234.68 285.97 210.52 311.1 210.52 290.96 234.68"/><circle class="cls-32" cx="141.98" cy="173.77" r="5.79" transform="translate(-80.76 146.57) rotate(-43.79)"/><path class="cls-37" d="M146,178a5.79,5.79,0,1,1-8-8.37Z"/><circle class="cls-32" cx="141.98" cy="222.6" r="5.79" transform="translate(-114.54 160.12) rotate(-43.78)"/><path class="cls-37" d="M146,226.78a5.79,5.79,0,0,1-8-8.37Z"/><circle class="cls-32" cx="293.08" cy="173.77" r="5.79" transform="translate(-38.74 251.13) rotate(-43.79)"/><path class="cls-37" d="M297.09,178a5.79,5.79,0,1,1-8-8.37Z"/><circle class="cls-32" cx="293.08" cy="222.6" r="5.79" transform="translate(-72.54 264.67) rotate(-43.78)"/><path class="cls-37" d="M297.09,226.78a5.79,5.79,0,0,1-8-8.37Z"/><rect class="cls-24" x="293.08" y="298.72" width="36.04" height="5.82"/><polygon class="cls-38" points="315.26 245.76 306.94 245.76 295.85 298.72 326.35 298.72 315.26 245.76"/><polygon class="cls-39" points="326.06 297.33 325.3 293.73 296.89 293.73 296.14 297.33 326.06 297.33"/><polygon class="cls-39" points="324.61 290.4 323.91 287.07 298.29 287.07 297.59 290.4 324.61 290.4"/><polygon class="cls-40" points="310.54 245.76 306.94 245.76 295.85 298.72 310.54 298.72 310.54 245.76"/><rect class="cls-24" x="272.14" y="304.44" width="36.04" height="5.82"/><polygon class="cls-38" points="294.32 251.49 286.01 251.49 274.92 304.44 305.41 304.44 294.32 251.49"/><polygon class="cls-39" points="305.12 303.06 304.37 299.45 275.96 299.45 275.21 303.06 305.12 303.06"/><polygon class="cls-39" points="303.67 296.12 302.98 292.8 277.36 292.8 276.66 296.12 303.67 296.12"/><polygon class="cls-40" points="289.61 251.49 286.01 251.49 274.92 304.44 289.61 304.44 289.61 251.49"/><rect class="cls-24" x="229.79" y="298.72" width="36.04" height="5.82"/><polygon class="cls-38" points="251.97 245.76 243.65 245.76 232.56 298.72 263.06 298.72 251.97 245.76"/><polygon class="cls-39" points="262.77 297.33 262.01 293.73 233.61 293.73 232.85 297.33 262.77 297.33"/><polygon class="cls-39" points="261.32 290.4 260.62 287.07 235 287.07 234.31 290.4 261.32 290.4"/><polygon class="cls-40" points="247.26 245.76 243.65 245.76 232.56 298.72 247.26 298.72 247.26 245.76"/><path class="cls-18" d="M288.14,321.59c3.13,1.11,16.93-1.14,27.25-2,2.67-.23,1.46-15.78,1.46-15.78L306,306.3s-12.26,6.54-17.85,6.54C282.37,312.84,285,320.48,288.14,321.59Z"/><path class="cls-19" d="M314,322.91c3.22.82,16.75-2.67,27-4.48,2.64-.47,0-15.84,0-15.84l-10.58,3.48s-11.62,7.63-17.19,8.13C307.42,314.73,310.73,322.09,314,322.91Z"/><polygon class="cls-20" points="301.95 307.5 318.54 307.5 322.05 188.85 298.65 181.76 301.95 307.5"/><polygon class="cls-20" points="327.24 307.5 343.83 307.5 347.33 181.76 323.93 188.85 327.24 307.5"/><ellipse class="cls-20" cx="323.07" cy="178.75" rx="24.42" ry="19.42"/><path class="cls-41" d="M349.45,118.89c-7-19.39-6.49-34.79-8.61-36.29s-6.49-2-6.49-2H313.75s-4.36.46-6.49,2-1.6,16.9-8.61,36.29c-.27,14.67-.87,63.56-.87,63.56s9.76,5.65,26.16,5.65h.21c16.4,0,26.16-5.65,26.16-5.65S349.73,133.55,349.45,118.89Z"/><rect class="cls-23" x="316.63" y="72.41" width="14.9" height="11.82"/><ellipse class="cls-22" cx="344.37" cy="48.82" rx="5.1" ry="8.47"/><ellipse class="cls-22" cx="302.96" cy="48.82" rx="5.1" ry="8.47"/><path class="cls-42" d="M323.07,164.47s-.5,22.56-4.22,24.12c-5.39,2.25-23.08-4.37-23.08-4.37s2.61-50.66,2.89-65.33c7-19.39,6.49-34.79,8.61-36.29s6.49-2,6.49-2l9.76,42.81Z"/><path class="cls-22" d="M342.45,62.39c-2.7,9.54-14,16.47-18.69,16.47s-15.75-7-18.68-16.47a74.84,74.84,0,0,1-3.42-23.49c0-7,7.37-25.32,22.11-25.32s22.11,14.34,22.11,23.19A102.5,102.5,0,0,1,342.45,62.39Z"/><path class="cls-26" d="M343.2,48.3c1.89.41.55-6.93,2-7.4.93-.3,2,.74,2.75,1.83,1.56-10.14-.75-33-25.86-33-23,0-24.18,24.26-23,33.72a5.85,5.85,0,0,1,3.3-2.71c1.29-.37-.41,5.5,3.11,7.59,0,0,.21-14.59,6.63-17.36s6,5,12.69,5,5.56-6.35,11.41-5S341,37.63,343.2,48.3Z"/><path class="cls-32" d="M297.54,33.15a25.82,25.82,0,0,1,51.64,0Z"/><path class="cls-43" d="M336.84,11.45a30.54,30.54,0,0,0-15.66,21.7h28A25.37,25.37,0,0,0,336.84,11.45Z"/><path class="cls-44" d="M340,33.15H297.54l-8.47,2.19s1.44,3.19,3.23,3.19h40.47C336.27,38.52,340,33.15,340,33.15Z"/><path class="cls-42" d="M321.18,164.47s-1,22.83,2.76,24.38c5.39,2.25,28.41-4.64,28.41-4.64s-2.61-50.66-2.89-65.33c-7-19.39-6.49-34.79-8.61-36.29s-6.49-2-6.49-2l-10.85,42.81Z"/><path class="cls-42" d="M351.84,125.08l9.71-6.5s-4.75-23.48-8.85-28.7-11.85-7.27-11.85-7.27,1.41,20.32,8.61,36.29C351.1,122.84,351.84,125.08,351.84,125.08Z"/><path class="cls-22" d="M324.16,89.88c-7.27,0-8.36-9.23-8.36-9.23h16.71S331.43,89.88,324.16,89.88Z"/><polygon class="cls-45" points="346.19 227.13 344.14 227.13 344.14 224.24 347.23 224.24 346.19 227.13"/><polygon class="cls-45" points="386.5 227.13 388.55 227.13 388.55 224.24 385.45 224.24 386.5 227.13"/><path class="cls-46" d="M358.57,184.73v-4.16a1.39,1.39,0,0,1,1.42-1.35h11.62a1.39,1.39,0,0,1,1.42,1.35v4.16h2.89v-5.83a1.75,1.75,0,0,0-1.8-1.71H357.47a1.75,1.75,0,0,0-1.8,1.71v5.83Z"/><path class="cls-47" d="M374.49,184.73c-.28-2.59.81-5.92-2.77-6.41-2.48-.34-5,.26-7.49.22a22.06,22.06,0,0,0-5.32.21c-.52.12-1.48.21-1.74.77a4.53,4.53,0,0,0-.42,1.75,4.79,4.79,0,0,1-.67,3.09,1.76,1.76,0,0,1-.35.37h2.85v-4.16a1.39,1.39,0,0,1,1.42-1.35h11.62a1.39,1.39,0,0,1,1.42,1.35v4.16Z"/><path class="cls-48" d="M342,183.46h47.69a3.59,3.59,0,0,1,3.59,3.59v33.27a3.58,3.58,0,0,1-3.58,3.58H342a3.59,3.59,0,0,1-3.59-3.59V187.05A3.59,3.59,0,0,1,342,183.46Z"/><path class="cls-49" d="M392.17,203.09V188.48a3.45,3.45,0,0,0-3.45-3.45H342.88a3.45,3.45,0,0,0-3.45,3.45v14.62"/><path class="cls-50" d="M391.09,220.69a3.26,3.26,0,0,1-3.31,3.22h-44a3.26,3.26,0,0,1-3.31-3.22V190.82a3.26,3.26,0,0,1,3.31-3.22h44a3.26,3.26,0,0,1,3.31,3.22Z"/><path class="cls-51" d="M357.42,188.83a5.65,5.65,0,0,0,3.2,1.9,24.57,24.57,0,0,0,7,.6c4.53-.14,9.49-.82,13.87.66a9.1,9.1,0,0,1,5,3.63c1.55,2.52,1.53,5.46,1.67,8.32.13,2.59.32,6.56,2.94,8V190.82a3.26,3.26,0,0,0-3.31-3.22H357.05A2.28,2.28,0,0,0,357.42,188.83Z"/><path class="cls-47" d="M387.33,220.61c-5,.92-10.48,2-15.49.87-6.2-1.46-12.39-3.2-17-7.84a28.74,28.74,0,0,1-8.33-16.86,27.5,27.5,0,0,1,.45-9.18h-3.12a3.26,3.26,0,0,0-3.31,3.22v29.87a3.26,3.26,0,0,0,3.31,3.22h44a3.26,3.26,0,0,0,3.31-3.22v-1.06A18.63,18.63,0,0,1,387.33,220.61Z"/><rect class="cls-52" x="357.36" y="183.46" width="16.88" height="2.81"/><rect class="cls-44" x="342.26" y="223.9" width="47.39" height="1.41"/><rect class="cls-39" x="283.44" y="130.89" width="43.25" height="29.57" transform="translate(53.11 371.07) rotate(-67.34)"/><path class="cls-22" d="M305.74,157.6c4.69,1.87,9.62,1.88,11.2-.65s-1.42-7-6.93-9.18-10.72-1.08-11.48,1.76S301.05,155.7,305.74,157.6Z"/><path class="cls-42" d="M297.07,124.52l-11.17-6.57s4.24-22.85,8.34-28.07,13-7.27,13-7.27-1.42,20.32-8.61,36.29C297.63,122.44,297.07,124.52,297.07,124.52Z"/><path class="cls-42" d="M302,106.53l-.66,2.31c-.42,1.47-1,3.58-1.69,6.09l-2.32,8.6L296,128.38l-.67,2.49c0,.16-.22.85-.27,1.09s-.11.51-.15.82a7.68,7.68,0,0,0,0,2.87,5.43,5.43,0,0,0,1.08,2.18,21.67,21.67,0,0,0,5.34,4.38c2,1.25,3.84,2.24,5.13,2.92l2.06,1.07-5,10.26-2.24-1.09c-1.43-.71-3.48-1.72-6-3.2a45.54,45.54,0,0,1-4.06-2.68,25.93,25.93,0,0,1-4.47-4.16,17.55,17.55,0,0,1-3.51-6.74,19.59,19.59,0,0,1-.39-7.5c.07-.56.17-1.16.29-1.77s.16-.78.32-1.46l.62-2.54,1.2-4.94,2.14-8.77c.62-2.57,1.17-4.69,1.55-6.17l.6-2.33Z"/><path class="cls-22" d="M371.66,170.42c1.05,4.67,0,9.14-3.13,10s-7.39-2.82-8.64-8.3,1.11-10,4.41-10S370.57,165.75,371.66,170.42Z"/><path class="cls-42" d="M355.31,99l.31.7c.2.42.51,1.21.89,2.14s.86,2.1,1.3,3.35l1.53,4.26,1.59,5.06.86,2.76.78,2.91,1.62,6.09c.51,2.08.93,4.21,1.4,6.33s.94,4.24,1.34,6.34l1,6.18.94,5.78c.3,1.84.42,3.59.62,5.2l1.16,10.75-11,1-1.41-10.27c-.23-1.54-.39-3.22-.73-5l-1.06-5.5-1.13-5.87c-.44-2-1-4-1.45-6s-1-4-1.5-6l-1.69-5.7-.81-2.72-.88-2.56-1.62-4.68-1.52-3.86c-.44-1.18-.86-2.09-1.19-2.85s-.57-1.34-.81-1.81l-.33-.69Z"/></g></g></g></svg>